<svg width="86" height="34" viewBox="0 0 86 34" fill="none" xmlns="http://www.w3.org/2000/svg">
<g filter="url(#filter0_d_3_248)">
<path d="M8.00008 25V8.2H15.5601C16.7121 8.2 17.7361 8.448 18.6321 8.944C19.5281 9.44 20.2321 10.12 20.7441 10.984C21.2561 11.848 21.5121 12.84 21.5121 13.96C21.5121 15.128 21.2561 16.168 20.7441 17.08C20.2321 17.992 19.5281 18.708 18.6321 19.228C17.7361 19.748 16.7121 20.008 15.5601 20.008H13.1841V25H8.00008ZM13.0881 15.592H14.6001C14.9041 15.592 15.1761 15.532 15.4161 15.412C15.6561 15.292 15.8441 15.12 15.9801 14.896C16.1161 14.672 16.1841 14.392 16.1841 14.056C16.1841 13.72 16.1161 13.448 15.9801 13.24C15.8441 13.032 15.6561 12.876 15.4161 12.772C15.1761 12.668 14.9041 12.616 14.6001 12.616H13.0881V15.592ZM27.2961 25.216C26.2241 25.216 25.2721 24.932 24.4401 24.364C23.6081 23.796 22.9521 23.012 22.4721 22.012C21.9921 21.012 21.7521 19.864 21.7521 18.568C21.7521 17.256 21.9881 16.1 22.4601 15.1C22.9321 14.1 23.5881 13.316 24.4281 12.748C25.2681 12.18 26.2401 11.896 27.3441 11.896C27.9201 11.896 28.4481 11.976 28.9281 12.136C29.4081 12.296 29.8321 12.52 30.2001 12.808C30.5681 13.096 30.8881 13.428 31.1601 13.804C31.4321 14.18 31.6641 14.584 31.8561 15.016L30.8721 14.992V12.16H35.6481V25H30.7521V21.856L31.8321 21.952C31.6721 22.416 31.4521 22.848 31.1721 23.248C30.8921 23.648 30.5601 23.992 30.1761 24.28C29.7921 24.568 29.3601 24.796 28.8801 24.964C28.4001 25.132 27.8721 25.216 27.2961 25.216ZM28.6881 21.256C29.1521 21.256 29.5481 21.152 29.8761 20.944C30.2041 20.736 30.4521 20.432 30.6201 20.032C30.7881 19.632 30.8721 19.144 30.8721 18.568C30.8721 17.992 30.7881 17.5 30.6201 17.092C30.4521 16.684 30.2041 16.376 29.8761 16.168C29.5481 15.96 29.1521 15.856 28.6881 15.856C28.2241 15.856 27.8321 15.96 27.5121 16.168C27.1921 16.376 26.9481 16.684 26.7801 17.092C26.6121 17.5 26.5281 17.992 26.5281 18.568C26.5281 19.144 26.6121 19.632 26.7801 20.032C26.9481 20.432 27.1921 20.736 27.5121 20.944C27.8321 21.152 28.2241 21.256 28.6881 21.256ZM37.3281 25V22.696L44.3121 14.008V16H37.3281V12.16H48.9201V14.656L42.5121 22.984L42.4161 21.16H49.1601V25H37.3281ZM50.5041 25V22.696L57.4881 14.008V16H50.5041V12.16H62.0961V14.656L55.6881 22.984L55.5921 21.16H62.3361V25H50.5041ZM70.1841 25.24C68.7921 25.24 67.5521 24.952 66.4641 24.376C65.3761 23.8 64.5201 23.012 63.8961 22.012C63.2721 21.012 62.9601 19.864 62.9601 18.568C62.9601 17.272 63.2721 16.124 63.8961 15.124C64.5201 14.124 65.3761 13.336 66.4641 12.76C67.5521 12.184 68.7921 11.896 70.1841 11.896C71.5761 11.896 72.8121 12.184 73.8921 12.76C74.9721 13.336 75.8201 14.124 76.4361 15.124C77.0521 16.124 77.3601 17.272 77.3601 18.568C77.3601 19.864 77.0521 21.012 76.4361 22.012C75.8201 23.012 74.9721 23.8 73.8921 24.376C72.8121 24.952 71.5761 25.24 70.1841 25.24ZM70.1841 21.16C70.6161 21.16 71.0041 21.048 71.3481 20.824C71.6921 20.6 71.9601 20.292 72.1521 19.9C72.3441 19.508 72.4401 19.064 72.4401 18.568C72.4401 18.056 72.3441 17.604 72.1521 17.212C71.9601 16.82 71.6921 16.512 71.3481 16.288C71.0041 16.064 70.6161 15.952 70.1841 15.952C69.7361 15.952 69.3401 16.064 68.9961 16.288C68.6521 16.512 68.3801 16.82 68.1801 17.212C67.9801 17.604 67.8801 18.056 67.8801 18.568C67.8801 19.064 67.9801 19.508 68.1801 19.9C68.3801 20.292 68.6521 20.6 68.9961 20.824C69.3401 21.048 69.7361 21.16 70.1841 21.16Z" fill="#25F425"/>
</g>
<defs>
<filter id="filter0_d_3_248" x="-1.91992" y="-8" width="87.28" height="48" filterUnits="userSpaceOnUse" color-interpolation-filters="sRGB">
<feFlood flood-opacity="0" result="BackgroundImageFix"/>
<feColorMatrix in="SourceAlpha" type="matrix" values="0 0 0 0 0 0 0 0 0 0 0 0 0 0 0 0 0 0 127 0" result="hardAlpha"/>
<feOffset/>
<feGaussianBlur stdDeviation="4"/>
<feComposite in2="hardAlpha" operator="out"/>
<feColorMatrix type="matrix" values="0 0 0 0 0.145098 0 0 0 0 0.956863 0 0 0 0 0.145098 0 0 0 0.5 0"/>
<feBlend mode="normal" in2="BackgroundImageFix" result="effect1_dropShadow_3_248"/>
<feBlend mode="normal" in="SourceGraphic" in2="effect1_dropShadow_3_248" result="shape"/>
</filter>
</defs>
</svg>
